<?xml version="1.0" encoding="utf-8"?>
<!-- Generator: Adobe Illustrator 25.0.0, SVG Export Plug-In . SVG Version: 6.00 Build 0)  -->
<svg version="1.1" id="Layer_1" xmlns="http://www.w3.org/2000/svg" xmlns:xlink="http://www.w3.org/1999/xlink" x="0px" y="0px"
	 viewBox="0 0 28 22" style="enable-background:new 0 0 28 22;" xml:space="preserve">
<style type="text/css">
	.st0{fill:#23479f;stroke:#FFFFFF;stroke-width:3;}
	.st1{fill-rule:evenodd;clip-rule:evenodd;fill:#FFFFFF;}
</style>
<path class="st0" d="M2,4c0-1.1,0.9-2,2-2h6.4c1,0,2.1,0.3,3,0.8l0.7,0.4C15,3.7,16,4,17.1,4H24c1.1,0,2,0.9,2,2v12c0,1.1-0.9,2-2,2
	h-6.9c-1,0-2.1-0.3-3-0.8l-0.7-0.4c-0.9-0.5-1.9-0.8-3-0.8H4c-1.1,0-2-0.9-2-2V4z"/>
<path class="st1" d="M8,3c0,2.8-2.2,5-5,5V3H8z M3,12c2.8,0,5,2.2,5,5H3V12z"/>
<path class="st1" d="M20,19c0-2.8,2.2-5,5-5v5H20z M25,10c-2.8,0-5-2.2-5-5h5V10z"/>
<circle class="st0" cx="14" cy="11" r="3"/>
</svg>